<mxfile host="app.diagrams.net" modified="2022-06-28T08:35:03.518Z" agent="5.0 (Windows NT 10.0; Win64; x64) AppleWebKit/537.36 (KHTML, like Gecko) Chrome/102.0.0.0 Safari/537.36" etag="A32MMeOr0xM9U-BBa7vO" version="17.1.3" type="github">
  <diagram id="6a731a19-8d31-9384-78a2-239565b7b9f0" name="Page-1">
    <mxGraphModel dx="2557" dy="1172" grid="1" gridSize="10" guides="1" tooltips="1" connect="1" arrows="1" fold="1" page="1" pageScale="1" pageWidth="1169" pageHeight="827" background="none" math="0" shadow="0">
      <root>
        <mxCell id="0" />
        <mxCell id="1" parent="0" />
        <mxCell id="qiY44dEpsbHMDKb-lZWy-61" value="" style="edgeStyle=orthogonalEdgeStyle;rounded=0;orthogonalLoop=1;jettySize=auto;html=1;" edge="1" parent="1" source="2" target="qiY44dEpsbHMDKb-lZWy-55">
          <mxGeometry relative="1" as="geometry" />
        </mxCell>
        <mxCell id="2" value="start" style="shape=mxgraph.flowchart.terminator;strokeWidth=2;gradientColor=none;gradientDirection=north;fontStyle=0;html=1;" parent="1" vertex="1">
          <mxGeometry x="260" y="50" width="120" height="30" as="geometry" />
        </mxCell>
        <mxCell id="3" value="228번 서버&amp;nbsp;&lt;br&gt;L4 제외" style="shape=mxgraph.flowchart.data;strokeWidth=2;gradientColor=none;gradientDirection=north;fontStyle=0;html=1;" parent="1" vertex="1">
          <mxGeometry x="242" y="100" width="159" height="80" as="geometry" />
        </mxCell>
        <mxCell id="7" style="fontStyle=1;strokeColor=#003366;strokeWidth=1;html=1;" parent="1" source="2" target="3" edge="1">
          <mxGeometry relative="1" as="geometry" />
        </mxCell>
        <mxCell id="qiY44dEpsbHMDKb-lZWy-55" value="228번 서버&lt;br&gt;WEB-INF 배포" style="shape=mxgraph.flowchart.data;strokeWidth=2;gradientColor=none;gradientDirection=north;fontStyle=0;html=1;" vertex="1" parent="1">
          <mxGeometry x="242" y="200" width="159" height="80" as="geometry" />
        </mxCell>
        <mxCell id="qiY44dEpsbHMDKb-lZWy-58" value="228번 서버&lt;br&gt;최후의 순간 ON" style="shape=mxgraph.flowchart.data;strokeWidth=2;gradientColor=none;gradientDirection=north;fontStyle=0;html=1;" vertex="1" parent="1">
          <mxGeometry x="240.5" y="400" width="159" height="80" as="geometry" />
        </mxCell>
        <mxCell id="qiY44dEpsbHMDKb-lZWy-59" value="" style="fontStyle=1;strokeColor=#003366;strokeWidth=1;html=1;startArrow=none;entryX=0.5;entryY=0;entryDx=0;entryDy=0;entryPerimeter=0;endArrow=none;" edge="1" parent="1" source="qiY44dEpsbHMDKb-lZWy-63" target="qiY44dEpsbHMDKb-lZWy-58">
          <mxGeometry relative="1" as="geometry">
            <mxPoint x="320" y="320" as="sourcePoint" />
            <mxPoint x="320" y="440" as="targetPoint" />
          </mxGeometry>
        </mxCell>
        <mxCell id="qiY44dEpsbHMDKb-lZWy-62" style="fontStyle=1;strokeColor=#003366;strokeWidth=1;html=1;exitX=0.5;exitY=1;exitDx=0;exitDy=0;exitPerimeter=0;entryX=0.5;entryY=0;entryDx=0;entryDy=0;entryPerimeter=0;" edge="1" parent="1" source="3" target="qiY44dEpsbHMDKb-lZWy-55">
          <mxGeometry relative="1" as="geometry">
            <mxPoint x="330.29999999999995" y="90" as="sourcePoint" />
            <mxPoint x="330.70000000000005" y="110" as="targetPoint" />
          </mxGeometry>
        </mxCell>
        <mxCell id="qiY44dEpsbHMDKb-lZWy-67" value="" style="edgeStyle=orthogonalEdgeStyle;rounded=0;orthogonalLoop=1;jettySize=auto;html=1;" edge="1" parent="1" source="qiY44dEpsbHMDKb-lZWy-63" target="qiY44dEpsbHMDKb-lZWy-58">
          <mxGeometry relative="1" as="geometry" />
        </mxCell>
        <mxCell id="qiY44dEpsbHMDKb-lZWy-68" value="" style="edgeStyle=orthogonalEdgeStyle;rounded=0;orthogonalLoop=1;jettySize=auto;html=1;" edge="1" parent="1" source="qiY44dEpsbHMDKb-lZWy-63" target="qiY44dEpsbHMDKb-lZWy-58">
          <mxGeometry relative="1" as="geometry" />
        </mxCell>
        <mxCell id="qiY44dEpsbHMDKb-lZWy-63" value="228번 서버&lt;br&gt;Tomcat Restart" style="shape=mxgraph.flowchart.data;strokeWidth=2;gradientColor=none;gradientDirection=north;fontStyle=0;html=1;" vertex="1" parent="1">
          <mxGeometry x="240.5" y="300" width="159" height="80" as="geometry" />
        </mxCell>
        <mxCell id="qiY44dEpsbHMDKb-lZWy-65" style="fontStyle=1;strokeColor=#003366;strokeWidth=1;html=1;entryX=0.5;entryY=0;entryDx=0;entryDy=0;entryPerimeter=0;" edge="1" parent="1" target="qiY44dEpsbHMDKb-lZWy-63">
          <mxGeometry relative="1" as="geometry">
            <mxPoint x="320" y="280" as="sourcePoint" />
            <mxPoint x="331.5" y="210" as="targetPoint" />
          </mxGeometry>
        </mxCell>
        <mxCell id="qiY44dEpsbHMDKb-lZWy-66" value="228번 서버&lt;br&gt;L4 연동" style="shape=mxgraph.flowchart.data;strokeWidth=2;gradientColor=none;gradientDirection=north;fontStyle=0;html=1;" vertex="1" parent="1">
          <mxGeometry x="240.5" y="500" width="159" height="80" as="geometry" />
        </mxCell>
        <mxCell id="qiY44dEpsbHMDKb-lZWy-70" value="" style="edgeStyle=orthogonalEdgeStyle;rounded=0;orthogonalLoop=1;jettySize=auto;html=1;exitX=0.5;exitY=1;exitDx=0;exitDy=0;exitPerimeter=0;entryX=0.5;entryY=0;entryDx=0;entryDy=0;entryPerimeter=0;" edge="1" parent="1" source="qiY44dEpsbHMDKb-lZWy-58" target="qiY44dEpsbHMDKb-lZWy-66">
          <mxGeometry relative="1" as="geometry">
            <mxPoint x="330" y="390" as="sourcePoint" />
            <mxPoint x="330" y="410" as="targetPoint" />
          </mxGeometry>
        </mxCell>
        <mxCell id="qiY44dEpsbHMDKb-lZWy-71" value="228번 서버&lt;br&gt;L4 제외" style="shape=mxgraph.flowchart.data;strokeWidth=2;gradientColor=none;gradientDirection=north;fontStyle=0;html=1;" vertex="1" parent="1">
          <mxGeometry x="241" y="600" width="159" height="80" as="geometry" />
        </mxCell>
        <mxCell id="qiY44dEpsbHMDKb-lZWy-73" value="" style="edgeStyle=orthogonalEdgeStyle;rounded=0;orthogonalLoop=1;jettySize=auto;html=1;exitX=0.5;exitY=1;exitDx=0;exitDy=0;exitPerimeter=0;entryX=0.5;entryY=0;entryDx=0;entryDy=0;entryPerimeter=0;" edge="1" parent="1" source="qiY44dEpsbHMDKb-lZWy-66" target="qiY44dEpsbHMDKb-lZWy-71">
          <mxGeometry relative="1" as="geometry">
            <mxPoint x="330" y="489.9999999999999" as="sourcePoint" />
            <mxPoint x="330" y="510" as="targetPoint" />
          </mxGeometry>
        </mxCell>
        <mxCell id="qiY44dEpsbHMDKb-lZWy-74" value="228번 서버&amp;nbsp;&lt;br&gt;최후의 순간 OFF" style="shape=mxgraph.flowchart.data;strokeWidth=2;gradientColor=none;gradientDirection=north;fontStyle=0;html=1;" vertex="1" parent="1">
          <mxGeometry x="240.5" y="700" width="159" height="80" as="geometry" />
        </mxCell>
        <mxCell id="qiY44dEpsbHMDKb-lZWy-75" value="" style="edgeStyle=orthogonalEdgeStyle;rounded=0;orthogonalLoop=1;jettySize=auto;html=1;exitX=0.5;exitY=1;exitDx=0;exitDy=0;exitPerimeter=0;" edge="1" parent="1" source="qiY44dEpsbHMDKb-lZWy-71">
          <mxGeometry relative="1" as="geometry">
            <mxPoint x="330" y="590" as="sourcePoint" />
            <mxPoint x="320" y="700" as="targetPoint" />
          </mxGeometry>
        </mxCell>
        <mxCell id="qiY44dEpsbHMDKb-lZWy-76" value="228번 서버&lt;br&gt;L4 연동" style="shape=mxgraph.flowchart.data;strokeWidth=2;gradientColor=none;gradientDirection=north;fontStyle=0;html=1;" vertex="1" parent="1">
          <mxGeometry x="240.5" y="800" width="159" height="80" as="geometry" />
        </mxCell>
        <mxCell id="qiY44dEpsbHMDKb-lZWy-78" value="" style="edgeStyle=orthogonalEdgeStyle;rounded=0;orthogonalLoop=1;jettySize=auto;html=1;exitX=0.5;exitY=1;exitDx=0;exitDy=0;exitPerimeter=0;" edge="1" parent="1" source="qiY44dEpsbHMDKb-lZWy-74">
          <mxGeometry relative="1" as="geometry">
            <mxPoint x="330.5" y="690" as="sourcePoint" />
            <mxPoint x="320" y="800" as="targetPoint" />
          </mxGeometry>
        </mxCell>
        <mxCell id="qiY44dEpsbHMDKb-lZWy-79" value="" style="edgeStyle=orthogonalEdgeStyle;rounded=0;orthogonalLoop=1;jettySize=auto;html=1;exitX=0.5;exitY=1;exitDx=0;exitDy=0;exitPerimeter=0;" edge="1" parent="1" source="qiY44dEpsbHMDKb-lZWy-76">
          <mxGeometry relative="1" as="geometry">
            <mxPoint x="330" y="790" as="sourcePoint" />
            <mxPoint x="320" y="900" as="targetPoint" />
          </mxGeometry>
        </mxCell>
        <mxCell id="qiY44dEpsbHMDKb-lZWy-80" value="지연 발생?" style="shape=mxgraph.flowchart.decision;strokeWidth=2;gradientColor=none;gradientDirection=north;fontStyle=0;html=1;" vertex="1" parent="1">
          <mxGeometry x="271.5" y="900" width="98" height="57" as="geometry" />
        </mxCell>
        <mxCell id="qiY44dEpsbHMDKb-lZWy-83" value="" style="edgeStyle=orthogonalEdgeStyle;rounded=0;orthogonalLoop=1;jettySize=auto;html=1;exitX=1;exitY=0.5;exitDx=0;exitDy=0;exitPerimeter=0;entryX=0.471;entryY=1.028;entryDx=0;entryDy=0;entryPerimeter=0;" edge="1" parent="1" source="qiY44dEpsbHMDKb-lZWy-80" target="qiY44dEpsbHMDKb-lZWy-84">
          <mxGeometry relative="1" as="geometry">
            <mxPoint x="320.5" y="980" as="sourcePoint" />
            <mxPoint x="321" y="1000" as="targetPoint" />
          </mxGeometry>
        </mxCell>
        <mxCell id="qiY44dEpsbHMDKb-lZWy-84" value="228번 서버&lt;br&gt;L4 제외" style="shape=mxgraph.flowchart.data;strokeWidth=2;gradientColor=none;gradientDirection=north;fontStyle=0;html=1;" vertex="1" parent="1">
          <mxGeometry x="455.5" y="800" width="159" height="80" as="geometry" />
        </mxCell>
        <mxCell id="qiY44dEpsbHMDKb-lZWy-85" value="" style="edgeStyle=orthogonalEdgeStyle;rounded=0;orthogonalLoop=1;jettySize=auto;html=1;exitX=0.095;exitY=0.5;exitDx=0;exitDy=0;exitPerimeter=0;" edge="1" parent="1" source="qiY44dEpsbHMDKb-lZWy-84">
          <mxGeometry relative="1" as="geometry">
            <mxPoint x="330" y="890" as="sourcePoint" />
            <mxPoint x="380" y="840" as="targetPoint" />
          </mxGeometry>
        </mxCell>
        <mxCell id="qiY44dEpsbHMDKb-lZWy-86" value="yes" style="text;fontStyle=0;html=1;strokeColor=none;gradientColor=none;fillColor=none;strokeWidth=2;" vertex="1" parent="1">
          <mxGeometry x="369.5" y="900" width="40" height="26" as="geometry" />
        </mxCell>
        <mxCell id="qiY44dEpsbHMDKb-lZWy-87" value="no" style="text;fontStyle=0;html=1;strokeColor=none;gradientColor=none;fillColor=none;strokeWidth=2;align=center;" vertex="1" parent="1">
          <mxGeometry x="320" y="957" width="40" height="26" as="geometry" />
        </mxCell>
        <mxCell id="qiY44dEpsbHMDKb-lZWy-89" value="나머지 서버도&amp;nbsp;&lt;br&gt;앞선 과정 반복" style="shape=mxgraph.flowchart.data;strokeWidth=2;gradientColor=none;gradientDirection=north;fontStyle=0;html=1;" vertex="1" parent="1">
          <mxGeometry x="232" y="990" width="159" height="80" as="geometry" />
        </mxCell>
        <mxCell id="qiY44dEpsbHMDKb-lZWy-91" value="" style="edgeStyle=orthogonalEdgeStyle;rounded=0;orthogonalLoop=1;jettySize=auto;html=1;exitX=0;exitY=0;exitDx=0;exitDy=0;" edge="1" parent="1" source="qiY44dEpsbHMDKb-lZWy-87">
          <mxGeometry relative="1" as="geometry">
            <mxPoint x="320" y="960" as="sourcePoint" />
            <mxPoint x="320" y="990" as="targetPoint" />
          </mxGeometry>
        </mxCell>
        <mxCell id="qiY44dEpsbHMDKb-lZWy-92" value="end" style="shape=mxgraph.flowchart.terminator;strokeWidth=2;gradientColor=none;gradientDirection=north;fontStyle=0;html=1;" vertex="1" parent="1">
          <mxGeometry x="255" y="1100" width="120" height="30" as="geometry" />
        </mxCell>
        <mxCell id="qiY44dEpsbHMDKb-lZWy-93" value="" style="edgeStyle=orthogonalEdgeStyle;rounded=0;orthogonalLoop=1;jettySize=auto;html=1;exitX=0.5;exitY=1;exitDx=0;exitDy=0;exitPerimeter=0;entryX=0.472;entryY=0.026;entryDx=0;entryDy=0;entryPerimeter=0;" edge="1" parent="1" source="qiY44dEpsbHMDKb-lZWy-89" target="qiY44dEpsbHMDKb-lZWy-92">
          <mxGeometry relative="1" as="geometry">
            <mxPoint x="330.0000000000002" y="967.0000000000002" as="sourcePoint" />
            <mxPoint x="330" y="1000" as="targetPoint" />
          </mxGeometry>
        </mxCell>
      </root>
    </mxGraphModel>
  </diagram>
</mxfile>
